PathFileType	4	(X/Y/Z)	C:/Users/beibeiliu/ov580/test_trc/User2\sequence.42_training_dense_left.trc
DataRate	CameraRate	NumFrames	NumMarkers	Units	OrigDataRate	OrigDataStartFrame	OrigNumFrames
120	120	13	19	mm	120	151	200
Frame#	Time	ThumbCMC			ThumbMCP			ThumbIP			ThumbTip			IndexMCP			IndexPIP			IndexTip			MiddleMCP			MiddlePIP			MiddleTip			RingMCP			RingPIP			RingTip			PinkyMCP			PinkyPIP			PinkyTip			BackHand1			BackHand2			BackHand3	
		X0	Y0	Z0	X1	Y1	Z1	X2	Y2	Z2	X3	Y3	Z3	X4	Y4	Z4	X5	Y5	Z5	X6	Y6	Z6	X7	Y7	Z7	X8	Y8	Z8	X9	Y9	Z9	X10	Y10	Z10	X11	Y11	Z11	X12	Y12	Z12	X13	Y13	Z13	X14	Y14	Z14	X15	Y15	Z15	X16	Y16	Z16	X17	Y17	Z17	X18	Y18	Z18	
150	1.25	-223.104	49.3067	8.57828	-190.969	52.0688	-18.8606	-175.619	45.7089	-48.3791	-187.421	23.4291	-71.7144	-238.974	78.748	-60.6169	-207.309	80.5085	-76.1729	-187.368	54.8553	-62.0879	-268.331	62.3629	-71.4233	-258.917	77.8448	-104.553	-234.04	84.339	-124.353	-272.377	40.9392	-71.8643	-269.324	50.1351	-102.084	-245.382	58.6595	-122.638	-265.453	5.78663	-64.8583	-268.801	16.7384	-96.1008	-254.866	26.063	-122.409	-267.077	12.1933	-23.9388	-271.132	-0.16038	3.71012	-266.827	40.7289	2.99326	
151	1.25833	-220.228	51.9317	10.1089	-193.543	49.5062	-17.4177	-176.602	43.9951	-52.4854	-191.337	21.0174	-67.4547	-236.476	77.206	-59.4622	-205.548	75.2277	-74.3012	-186.857	49.8524	-54.7953	-265.8	60.6834	-68.8692	-259.646	79.0009	-101.897	-233.22	87.2999	-126.61	-272.757	38.5782	-72.7275	-270.398	51.1302	-100.435	-253.391	60.188	-122.806	-265.171	9.02594	-63.8685	-272.679	14.6648	-93.1343	-266.119	22.9328	-117.881	-269.296	11.1699	-27.9662	-272.625	-1.71561	2.85107	-265.919	38.3043	-1.69601	
152	1.26667	-220.243	50.0313	9.8684	-190.316	49.4622	-13.9161	-175.251	43.3587	-48.6257	-187.918	21.7617	-68.9347	-231.608	78.1018	-60.2495	-200.729	74.0539	-71.2202	-185.318	49.6956	-53.681	-265.312	62.4277	-70.3143	-257.987	81.114	-100.115	-235.012	86.7257	-126.403	-270.487	37.6051	-69.3045	-271.981	49.2983	-98.1469	-252.716	61.2192	-126.346	-265.013	4.03654	-63.718	-272.769	16.3836	-91.4312	-268.614	24.0136	-117.464	-266.713	10.6259	-24.813	-272.976	1.85167	5.06604	-265.21	37.6438	1.30864	
153	1.275	-220.853	47.703	9.78433	-188.496	50.8353	-16.0002	-178.234	40.6157	-49.2703	-186.28	21.324	-67.9336	-233.666	73.6319	-60.4709	-198.289	71.108	-71.8769	-185.576	44.7068	-51.539	-264.84	66.3988	-71.2482	-257.313	79.2902	-101.718	-232.734	89.2715	-125.425	-270.755	33.212	-70.3819	-272.184	50.222	-101.019	-255.572	62.1254	-122.506	-263.034	7.11626	-63.2502	-273.883	12.6378	-94.1118	-271.62	20.6732	-117.69	-266.833	10.5912	-29.3547	-272.855	-1.49491	5.23146	-265.681	37.2935	2.31993	
154	1.28333	-219.728	47.2896	9.4276	-186.535	50.4912	-18.1688	-174.008	40.9489	-53.5277	-189.211	19.4572	-66.5128	-228.859	77.8858	-62.6114	-200.652	68.4714	-74.3336	-185.004	45.5008	-55.5686	-264.05	62.0067	-71.742	-255.697	80.8395	-100.799	-229.704	88.4759	-127.344	-268.585	37.0506	-68.2684	-270.618	48.3544	-102.68	-253.75	59.7686	-125.787	-262.682	3.44836	-63.3303	-273.441	14.1874	-92.9188	-270.669	17.2803	-116.973	-266.047	12.6356	-25.6349	-271.228	-1.53422	5.98032	-262.277	40.1229	0.16046	
155	1.29167	-218.679	46.5726	12.4689	-189.83	46.0667	-18.2223	-172.566	39.7896	-49.8483	-186.015	18.9164	-71.784	-230.598	77.1197	-59.0675	-198.512	72.5325	-74.16	-181.689	46.9831	-56.1837	-263.17	61.5622	-70.6263	-252.121	80.2616	-103.641	-230.725	84.0923	-127.714	-267.956	35.5172	-70.7105	-270.204	43.1344	-101.821	-251.259	55.6895	-127.413	-262.584	4.46344	-67.2076	-268.754	6.34089	-95.7876	-266.09	11.8928	-120.878	-266.168	12.6388	-25.247	-272.22	-0.128985	7.31569	-264.467	35.7008	1.92617	
156	1.3	-220.419	49.4319	8.40742	-190.583	49.3575	-16.077	-169.163	44.258	-48.2968	-172.707	22.9262	-70.3138	-233.433	71.4264	-67.4446	-204.384	71.6506	-79.8372	-181.846	52.2746	-61.6175	-263.386	54.3229	-77.9412	-254.666	69.7888	-107.282	-230.324	77.2272	-133.711	-264.886	23.5629	-79.254	-261.512	35.8697	-107.573	-243.427	42.896	-133.81	-251.369	-1.85312	-67.6531	-254.148	-2.3113	-97.7025	-248.324	-3.7491	-125.397	-262.116	7.27354	-28.6608	-268.018	-1.9595	3.51225	-263.818	33.782	-5.00291	
157	1.30833	-227.031	55.1373	10.4231	-192.978	58.2274	-9.6588	-166.892	55.8366	-40.3007	-164.545	33.8954	-60.955	-238.744	70.9571	-68.9669	-209.844	75.3188	-82.7951	-180.508	64.0222	-63.3205	-259.766	41.6585	-80.1126	-253.139	59.7235	-113.171	-228.962	68.6109	-141.011	-252.06	12.2163	-82.7888	-247.81	21.4331	-111.514	-230.029	29.7602	-138.658	-236.957	-11.4824	-72.3426	-230.975	-12.7562	-99.0669	-219.848	-9.97159	-124.085	-256.391	-0.706064	-32.2578	-263.351	-9.54968	0.650906	-265.522	32.2383	-5.15007	
158	1.31667	-234.552	56.1745	5.43173	-198.458	69.1487	-9.67583	-172.008	68.9078	-29.3108	-155.846	56.1326	-49.7169	-239.464	65.7196	-75.2344	-209.788	76.086	-84.247	-182.461	71.048	-64.7133	-256.338	38.4575	-88.0453	-249.596	48.8969	-115.472	-229.477	59.4943	-142.625	-241.933	8.25509	-88.0524	-235.297	15.3727	-113.378	-220.155	21.294	-137.222	-222.778	-14.2207	-72.0469	-212.042	-17.841	-94.158	-200.762	-16.7949	-120.845	-249.86	-2.94179	-29.3545	-258.809	-13.6244	-0.286792	-268.108	27.1079	-11.1996	
159	1.325	-238.892	57.3145	8.27476	-202.727	73.2793	-7.78967	-173.795	78.6455	-27.9454	-155.314	68.2516	-45.8952	-240.608	67.175	-71.4521	-206.028	78.6732	-81.0189	-182.7	72.4356	-62.4738	-252.372	34.3933	-86.5566	-243.915	47.1035	-119.206	-228.559	61.1639	-144.924	-238.127	7.11949	-85.1938	-233.681	15.6356	-113.429	-219.708	23.4241	-138.965	-221.734	-10.9522	-70.7209	-211.887	-13.0096	-95.3411	-206.74	-15.3727	-118.075	-250.065	-5.2197	-30.8346	-258.814	-14.4061	-3.17052	-267.645	22.9662	-14.4065	
160	1.33333	-233.86	50.4969	11.197	-199.168	64.0793	-3.99214	-168.562	70.653	-24.7149	-151.956	60.087	-49.5861	-234.131	66.6356	-71.1378	-203.182	74.7896	-78.3932	-173.714	63.6835	-59.5046	-254.414	44.4438	-86.1414	-246.036	57.371	-114.896	-232.283	69.0497	-144.784	-248.223	13.0452	-82.9138	-244.495	17.6998	-116.819	-236.122	26.6259	-139.235	-233.063	-12.8059	-71.6296	-230.153	-15.9013	-103.285	-229.182	-13.0467	-127.787	-256.799	0.923517	-35.0548	-264.19	-9.94645	-2.67613	-269.581	27.4283	-9.20992	
161	1.34167	-222.309	36.6	10.4808	-185.527	42.6684	-6.78524	-160.208	43.7621	-32.1068	-148.942	35.8802	-58.2598	-226.341	65.293	-64.1349	-196.629	64.2062	-77.8619	-170.9	38.5086	-67.3088	-255.284	47.7172	-78.5774	-249.152	63.5419	-109.275	-239.173	76.7105	-136.971	-262.606	19.2668	-84.1133	-261.919	31.3506	-109.188	-258.021	40.1101	-139.424	-253.081	-11.2764	-73.7502	-257.284	-8.51094	-101.777	-262.166	-9.98922	-127.078	-264.311	0.97478	-35.896	-272.372	-13.2974	-7.36782	-265.126	25.1043	-8.95698	
162	1.35	-213.429	23.8846	6.50493	-178.669	24.8259	-13.1073	-152.809	24.1915	-34.7895	-147.216	16.3627	-62.2211	-216.095	58.4729	-64.7569	-187.096	46.0975	-83.692	-168.391	18.3506	-75.5741	-251.208	49.9593	-79.2101	-243.236	68.733	-106.704	-235.424	80.4887	-132.552	-263.568	24.2979	-83.4132	-266.488	32.5131	-107.287	-266.5	44.2043	-133.149	-263.601	-10.8771	-77.2739	-270.773	-10.643	-102.537	-280.571	-5.40586	-127.514	-265.813	-0.866623	-34.3967	-273.712	-11.8895	-7.17899	-256.56	24.9428	-3.75817	
